HIERARCHY
ROOT Hips
{
	OFFSET 0.000000 0.000000 0.000000 
	CHANNELS 6 Xposition Yposition Zposition Zrotation Yrotation Xrotation
	JOINT LHipJoint
	{
		OFFSET 0.000000 0.000000 0.000000 
		CHANNELS 3 Zrotation Yrotation Xrotation
		JOINT LeftUpLeg
		{
			OFFSET 0.103546 -0.112676 0.039048 
			CHANNELS 3 Zrotation Yrotation Xrotation
			JOINT LeftLeg
			{
				OFFSET 0.162325 -0.445985 0.000000 
				CHANNELS 3 Zrotation Yrotation Xrotation
				JOINT LeftFoot
				{
					OFFSET 0.155773 -0.427981 0.000000 
					CHANNELS 3 Zrotation Yrotation Xrotation
					JOINT LeftToeBase
					{
						OFFSET 0.012315 -0.033835 0.134113 
						CHANNELS 3 Zrotation Yrotation Xrotation
						End Site
						{
							OFFSET 0.000000 -0.000000 0.069531 
						}
					}
				}
			}
		}
	}
	JOINT RHipJoint
	{
		OFFSET 0.000000 0.000000 0.000000 
		CHANNELS 3 Zrotation Yrotation Xrotation
		JOINT RightUpLeg
		{
			OFFSET -0.100669 -0.112676 0.039047 
			CHANNELS 3 Zrotation Yrotation Xrotation
			JOINT RightLeg
			{
				OFFSET -0.162189 -0.445611 0.000000 
				CHANNELS 3 Zrotation Yrotation Xrotation
				JOINT RightFoot
				{
					OFFSET -0.154237 -0.423765 0.000000 
					CHANNELS 3 Zrotation Yrotation Xrotation
					JOINT RightToeBase
					{
						OFFSET -0.014390 -0.039536 0.133355 
						CHANNELS 3 Zrotation Yrotation Xrotation
						End Site
						{
							OFFSET -0.000000 -0.000000 0.069731 
						}
					}
				}
			}
		}
	}
	JOINT LowerBack
	{
		OFFSET 0.000000 0.000000 0.000000 
		CHANNELS 3 Zrotation Yrotation Xrotation
		JOINT Spine
		{
			OFFSET 0.001226 0.128406 -0.008820 
			CHANNELS 3 Zrotation Yrotation Xrotation
			JOINT Spine1
			{
				OFFSET 0.000638 0.129022 -0.003701 
				CHANNELS 3 Zrotation Yrotation Xrotation
				JOINT Neck
				{
					OFFSET 0.000000 0.000000 0.000000 
					CHANNELS 3 Zrotation Yrotation Xrotation
					JOINT Neck1
					{
						OFFSET 0.000446 0.097944 0.009355 
						CHANNELS 3 Zrotation Yrotation Xrotation
						JOINT Head
						{
							OFFSET 0.002143 0.097526 -0.006254 
							CHANNELS 3 Zrotation Yrotation Xrotation
							End Site
							{
								OFFSET 0.000816 0.101600 -0.003291 
							}
						}
					}
				}
				JOINT LeftShoulder
				{
					OFFSET 0.000000 0.000000 0.000000 
					CHANNELS 3 Zrotation Yrotation Xrotation
					JOINT LeftArm
					{
						OFFSET 0.221378 0.056522 -0.010852 
						CHANNELS 3 Zrotation Yrotation Xrotation
						JOINT LeftForeArm
						{
							OFFSET 0.304071 -0.000000 -0.000000 
							CHANNELS 3 Zrotation Yrotation Xrotation
							JOINT LeftHand
							{
								OFFSET 0.209721 -0.000000 0.000000 
								CHANNELS 3 Zrotation Yrotation Xrotation
								JOINT LeftFingerBase
								{
									OFFSET 0.000000 0.000000 0.000000 
									CHANNELS 3 Zrotation Yrotation Xrotation
									JOINT LeftHandIndex1
									{
										OFFSET 0.041323 -0.000000 0.000000 
										CHANNELS 3 Zrotation Yrotation Xrotation
										End Site
										{
											OFFSET 0.033316 -0.000000 0.000000 
										}
									}
								}
								JOINT LThumb
								{
									OFFSET 0.000000 0.000000 0.000000 
									CHANNELS 3 Zrotation Yrotation Xrotation
									End Site
									{
										OFFSET 0.033825 -0.000000 0.033825 
									}
								}
							}
						}
					}
				}
				JOINT RightShoulder
				{
					OFFSET 0.000000 0.000000 0.000000 
					CHANNELS 3 Zrotation Yrotation Xrotation
					JOINT RightArm
					{
						OFFSET -0.218626 0.047496 -0.020385 
						CHANNELS 3 Zrotation Yrotation Xrotation
						JOINT RightForeArm
						{
							OFFSET -0.314156 -0.000000 0.000000 
							CHANNELS 3 Zrotation Yrotation Xrotation
							JOINT RightHand
							{
								OFFSET -0.210269 -0.000000 0.000000 
								CHANNELS 3 Zrotation Yrotation Xrotation
								JOINT RightFingerBase
								{
									OFFSET 0.000000 0.000000 0.000000 
									CHANNELS 3 Zrotation Yrotation Xrotation
									JOINT RightHandIndex1
									{
										OFFSET -0.045651 -0.000000 0.000000 
										CHANNELS 3 Zrotation Yrotation Xrotation
										End Site
										{
											OFFSET -0.036804 -0.000000 0.000000 
										}
									}
								}
								JOINT RThumb
								{
									OFFSET 0.000000 0.000000 0.000000 
									CHANNELS 3 Zrotation Yrotation Xrotation
									End Site
									{
										OFFSET -0.037366 -0.000000 0.037366 
									}
								}
							}
						}
					}
				}
			}
		}
	}
}
MOTION
Frames: 9
Frame Time: 0.033333
0.000000 1.054015 0.000000 -1.758200 1.069100 -6.031500 0.000000 0.000000 0.000000 -19.501200 -0.026000 -11.864400 14.020800 19.120300 72.267998 -0.896400 16.538000 -4.755600 0.509700 -4.576400 -12.704300 0.000000 0.000000 0.000000 27.938000 9.348600 -6.371600 -3.153400 -10.939300 32.075500 -1.026900 -3.185500 -20.540400 -0.000300 -0.111300 0.305900 1.404300 -1.287700 6.778900 1.402900 -1.592600 2.199600 0.781700 -0.796500 -2.432279 -0.377800 2.987400 -9.798300 -1.443900 4.133500 4.268400 -0.167800 1.984900 3.120800 -0.000000 0.000000 0.000000 -93.308800 3.920000 9.035300 10.485500 -17.495300 -1.617800 -0.000000 0.000000 -12.656100 22.261499 19.575100 7.809200 -7.125000 0.000000 -0.000000 -6.122800 50.897999 -0.892600 -0.000000 0.000000 0.000000 90.709198 -2.019100 14.414500 -9.669100 16.220301 -1.381100 0.000000 -0.000000 -3.473900 -22.895599 14.197100 -5.913600 7.125000 -0.000000 -0.000000 3.108900 -14.639500 2.225600 
0.000000 1.056790 0.000000 -2.361300 -1.025000 -5.692700 0.000000 0.000000 0.000000 -18.438601 -1.756000 -17.035000 13.710400 19.023800 71.318100 -0.433300 11.860300 -7.159700 0.470900 -4.401300 -12.208600 0.000000 0.000000 0.000000 28.996500 8.676000 -3.561000 -2.852700 -10.452800 30.455700 -1.221000 -1.403400 -21.429300 -0.027600 -1.072900 2.949600 2.317800 -0.768700 6.550000 1.369400 -0.852300 2.242400 0.172300 -0.425200 -2.275979 -0.541400 2.870000 -9.665300 -1.666100 4.012400 4.303000 -0.220500 1.913100 3.108400 0.000000 -0.000000 0.000000 -93.973198 5.038000 0.855300 8.498900 -14.358200 -1.072400 -0.000000 0.000000 -7.924000 23.813499 20.975300 8.977500 -7.125000 0.000000 -0.000000 -4.973100 52.648300 -0.937900 0.000000 -0.000000 0.000000 89.559303 2.390700 22.830500 -11.127000 18.482700 -1.816000 0.000000 -0.000000 -8.170300 -23.613600 13.015000 -5.622900 7.125000 -0.000000 -0.000000 2.550000 -15.830800 1.759400 
0.000000 1.056627 0.000000 -1.889400 -2.544600 -5.565100 0.000000 0.000000 0.000000 -18.602400 -4.129300 -20.764500 12.295000 18.512600 66.920799 -0.150600 8.917900 -9.326000 0.518700 -4.616100 -12.816900 0.000000 0.000000 0.000000 28.545601 7.235000 -1.127100 -2.714800 -10.218400 29.686899 -1.482200 0.281400 -22.946301 -0.013700 -0.754600 2.073700 2.367700 -0.375200 6.892300 0.885100 -0.318800 2.019200 -0.391900 -0.163200 -2.691279 -0.018700 2.914300 -9.560500 -2.206600 4.053000 4.733500 -0.483900 1.917100 3.264900 -0.000000 -0.000000 0.000000 -94.345398 7.699400 -3.718700 7.903600 -13.396400 -0.929700 -0.000000 0.000000 -6.635900 24.819300 20.643600 9.260400 -7.125000 0.000000 -0.000000 -3.853600 52.481800 -0.710500 -0.000000 -0.000000 0.000000 88.458298 6.057900 28.743000 -13.135900 21.486099 -2.502900 0.000000 -0.000000 -10.287800 -23.285500 14.702700 -6.233600 7.125000 -0.000000 -0.000000 2.874300 -14.051600 2.093200 
0.000000 1.058246 0.000000 -1.885500 -3.591800 -5.402500 0.000000 0.000000 0.000000 -17.947500 -6.564200 -23.227200 9.997100 17.408199 59.478802 0.029200 8.172700 -12.221500 0.420900 -4.164300 -11.539300 0.000000 0.000000 0.000000 28.194799 5.259300 1.895500 -2.299500 -9.463800 27.257200 -1.518200 1.775600 -22.795200 -0.010900 0.675100 -1.855300 2.745000 -0.236700 7.047900 0.601000 -0.114300 2.220600 -0.912900 -0.058400 -2.565879 0.496500 2.871800 -10.013900 -2.901600 3.968900 4.252000 -0.803100 1.857500 3.217100 -0.000000 -0.000000 0.000000 -94.895599 10.167500 -4.989800 8.077900 -13.679000 -0.970500 -0.000000 0.000000 -7.416100 24.082199 20.443001 8.872700 -7.125000 0.000000 -0.000000 -4.546800 52.133301 -0.799800 -0.000000 -0.000000 0.000000 87.281097 9.961200 33.750099 -16.009701 25.533800 -3.650100 0.000000 -0.000000 -12.591300 -22.781900 13.693500 -5.677900 7.125000 -0.000000 -0.000000 3.158500 -15.192100 2.223800 
0.000000 1.060014 0.000000 -2.807100 -4.515000 -4.888700 0.000000 0.000000 0.000000 -15.860400 -8.892800 -24.868500 7.137300 15.446400 49.391701 0.029500 9.096100 -13.480100 0.399800 -4.059600 -11.244400 0.000000 0.000000 0.000000 28.737600 3.501200 5.287300 -1.704700 -8.221800 23.389799 -1.319100 2.903600 -20.951900 -0.022200 0.962400 -2.645500 3.858400 -0.133200 7.432700 0.761500 0.123600 2.164300 -1.392500 0.054600 -2.825379 0.272200 2.774700 -9.683300 -3.171700 3.842400 2.885300 -0.867700 1.799200 2.684900 0.000000 -0.000000 0.000000 -95.782303 12.326300 -5.473000 8.367900 -14.147500 -1.040200 -0.000000 0.000000 -8.143400 22.698999 21.155001 8.584400 -7.125000 0.000000 -0.000000 -6.159900 52.632301 -1.160600 0.000000 -0.000000 0.000000 85.874802 13.520200 37.399200 -19.037800 29.465599 -5.049400 0.000000 -0.000000 -14.724800 -23.506701 14.367000 -6.159800 7.125000 -0.000000 -0.000000 2.703200 -14.385900 1.949000 
0.000000 1.063670 0.000000 -3.076600 -5.280900 -3.946300 0.000000 0.000000 0.000000 -14.318400 -11.592300 -25.237000 4.320100 12.574600 37.796101 0.052200 9.666400 -14.617900 0.561400 -4.798900 -13.336000 0.000000 0.000000 0.000000 28.414000 2.099100 8.711600 -1.119500 -6.721200 18.892000 -1.159900 3.704200 -19.463800 -0.010800 0.670100 -1.841500 4.200700 0.007300 7.119800 0.777500 0.320900 2.105300 -1.584100 0.153900 -2.699579 0.859900 2.856900 -10.344300 -4.012000 3.904700 2.204100 -1.235100 1.808300 2.618600 -0.000000 -0.000000 0.000000 -96.544098 13.833200 -5.677700 8.794200 -14.831800 -1.146900 -0.000000 0.000000 -9.045700 21.850599 19.397200 7.585900 -7.125000 0.000000 -0.000000 -6.477300 50.642601 -0.903900 -0.000000 -0.000000 0.000000 84.500702 17.096600 39.725399 -21.833799 32.788700 -6.495600 0.000000 -0.000000 -16.666800 -24.662901 16.256201 -7.324400 7.125000 -0.000000 -0.000000 2.060500 -12.199100 1.579600 
0.000000 1.062683 0.000000 -3.453200 -6.281900 -3.540000 0.000000 0.000000 0.000000 -12.446600 -14.458900 -24.437201 2.481400 9.804100 28.344601 0.054200 10.738100 -16.081400 0.902000 -6.052600 -16.937000 0.000000 0.000000 0.000000 27.998301 0.491500 12.807600 -0.638200 -5.111200 14.226000 -0.930500 4.327100 -17.291401 -0.006200 0.510400 -1.402500 4.592800 0.303200 6.949500 0.875700 0.724800 2.350500 -1.733000 0.365900 -2.323479 0.474200 2.662800 -10.738500 -3.985100 3.645600 0.869100 -1.170600 1.689800 2.224000 0.000000 -0.000000 0.000000 -97.116898 13.994900 -7.233900 8.715200 -14.705500 -1.126700 -0.000000 0.000000 -8.495400 20.093100 21.504400 7.637600 -7.125000 0.000000 -0.000000 -8.902100 52.522800 -1.658900 0.000000 -0.000000 0.000000 83.211403 20.259300 40.755199 -24.819799 36.019199 -8.183700 0.000000 -0.000000 -17.551001 -25.677099 16.271099 -7.671800 7.125000 -0.000000 -0.000000 1.386900 -12.039000 1.067400 
0.000000 1.059657 0.000000 -3.473800 -7.432300 -3.604700 0.000000 0.000000 0.000000 -11.744200 -14.917400 -24.017599 1.627400 8.042500 22.843399 0.048400 11.804700 -17.442400 0.990400 -6.334000 -17.756701 0.000000 0.000000 0.000000 27.030300 -1.308400 17.029301 -0.325700 -3.668200 10.145100 -0.738000 4.545800 -15.332200 -0.067500 1.676300 -4.611800 4.629100 0.577700 7.128700 0.834300 1.093100 2.565900 -1.825400 0.555700 -2.175179 1.089300 2.656800 -10.662900 -4.879900 3.543800 -0.412400 -1.575500 1.633300 1.822100 -0.000000 0.000000 0.000000 -97.359596 13.787800 -8.463200 8.481500 -14.330300 -1.068100 -0.000000 0.000000 -7.848200 20.091299 21.457001 7.621000 -7.125000 0.000000 -0.000000 -8.887000 52.473900 -1.645300 -0.000000 0.000000 0.000000 82.503799 22.728399 41.414200 -27.273701 38.438999 -9.668800 0.000000 -0.000000 -18.132500 -25.697001 16.327600 -7.704200 7.125000 -0.000000 -0.000000 1.378700 -11.974600 1.062900 
0.000000 1.055683 0.000000 -2.941000 -7.959100 -4.143100 0.000000 0.000000 0.000000 -13.104000 -13.722900 -23.080200 1.487800 7.705900 21.824301 0.186900 10.583700 -17.642300 1.108700 -6.689900 -18.799900 0.000000 0.000000 0.000000 25.588200 -2.260800 20.934500 -0.247400 -3.200700 8.838000 -0.651900 3.704200 -14.445200 -0.372900 3.922300 -10.858200 4.451700 0.742000 7.065600 0.568300 1.281300 2.867300 -2.010200 0.662200 -1.814479 1.365500 2.586200 -10.445200 -5.236600 3.376200 -1.581400 -1.749700 1.560000 1.411000 -0.000000 -0.000000 0.000000 -97.333199 13.783800 -7.551800 8.702200 -14.684500 -1.123400 -0.000000 0.000000 -8.315500 20.554899 21.017200 7.659500 -7.125000 0.000000 -0.000000 -8.270000 52.103699 -1.454500 -0.000000 -0.000000 0.000000 82.263199 24.300100 41.327202 -28.934401 39.962399 -10.718600 0.000000 -0.000000 -17.803801 -26.055500 17.376200 -8.307400 7.125000 -0.000000 -0.000000 1.238200 -10.778800 0.985000 
